<svg width="150" height="133" viewBox="0 0 150 133" fill="none" xmlns="http://www.w3.org/2000/svg">
<path d="M138.038 22.8884C122.85 19.4171 110.929 32.7476 106.176 39.1864C94.3921 33.9242 80.011 34.4489 69.5627 41.3957C62.3834 36.4064 51.899 35.5517 43.7085 39.2193C38.9738 32.793 27.0402 19.4085 11.8226 22.8884C7.61969 23.8493 4.68359 27.1339 4.68359 30.8762V74.4559C5.14036 84.6312 19.1645 83.8912 26.463 79.2017C27.2799 80.2063 28.1373 81.1747 29.0372 82.1096C27.0074 85.4001 28.4421 89.8479 32.1295 91.6898C34.2761 92.9329 36.8699 94.1355 39.4604 93.6743C39.6282 98.9302 46.1877 102.949 51.7419 101.042C52.9696 108.477 64.9055 110.285 68.9768 103.744C69.3393 103.146 70.4111 101.704 70.634 101.064C84.354 99.1084 97.1465 92.2156 106.065 82.8145C112.012 84.6203 118.955 83.1039 123.511 79.264C130.793 83.9053 144.74 84.5751 145.177 74.4557C145.177 74.4559 145.177 30.8762 145.177 30.8762C145.177 27.1339 142.24 23.8493 138.038 22.8884ZM18.0012 78.0724C14.2504 79.0353 8.70741 78.3103 9.36669 73.5053C18.1957 69.769 24.7578 64.5004 27.8807 58.5342C29.131 56.0392 24.9752 54.3213 23.6344 56.7828C21.1999 61.4334 16.1908 65.6532 9.36669 68.8777V30.8762C9.36669 29.0304 10.8565 27.4008 12.9911 26.9127C27.4265 24.0353 38.0521 38.9481 41.6797 44.2589C44.9833 56.0768 30.8851 75.6062 18.0012 78.0724ZM42.5268 86.2773L41.3366 88.0652C40.3702 89.5029 38.1984 90.0543 36.5289 89.1672L34.5098 88.1099C32.864 87.2885 32.2777 85.2654 33.2705 83.84C33.2704 83.84 34.4606 82.052 34.4606 82.052C35.3876 80.593 37.6621 80.0674 39.2706 80.9521L41.2875 82.0074C42.9343 82.8285 43.5191 84.8519 42.5268 86.2773ZM52.842 95.2981C50.9124 98.4519 45.1459 97.7298 44.274 94.2222C43.9723 93.1832 44.1388 92.1071 44.7231 91.1732C44.7865 91.0567 48.3452 85.703 48.3452 85.703C50.2728 82.5497 56.0446 83.2687 56.9134 86.7787C57.2255 87.8521 57.0472 88.9704 56.4115 89.9282L52.842 95.2981ZM66.1321 99.844L64.943 101.632C61.7333 106.295 53.8314 102.156 56.8758 97.4085C56.8757 97.4087 58.0663 95.6183 58.0663 95.6183C61.2796 90.9593 69.1759 95.0946 66.1321 99.844ZM71.3614 96.7501C70.9918 92.4759 66.291 89.0887 61.5325 89.436C63.4493 82.1142 53.2363 76.5138 46.6766 81.2242C43.7959 76.9176 36.0624 74.3797 31.7266 78.4978C31.2213 77.9404 30.7421 77.367 30.2682 76.785C41.4615 69.3431 49.5328 51.5312 46.0912 42.8597C52.2871 40.2117 60.2037 40.735 65.8217 44.1613C60.8877 48.5459 52.9415 57.8184 57.2869 64.1017C61.7739 70.4879 71.2466 69.6803 77.0841 64.3574C79.612 62.0968 81.3613 59.3794 83.1609 56.4956C92.4232 62.0625 99.5962 69.9089 103.708 78.8699C95.7813 87.9385 84.0344 94.4049 71.3614 96.7501ZM108.882 79.1996C105.708 71.1605 100.045 63.9334 92.8963 58.0869C95.4361 57.8136 101.053 57.1422 99.5829 53.8563C98.9755 52.8437 97.5612 52.4601 96.4156 52.9979C92.7158 54.7432 87.644 54.1191 84.621 51.5408C83.0683 50.2689 81.3297 51.2877 80.2877 52.526C76.737 58.0415 73.2718 65.1759 65.0208 64.3497C62.5147 63.7651 60.1362 61.8484 60.7423 59.1076C65.8623 42.9922 86.9354 35.045 103.803 42.769C100.305 51.357 108.237 69.193 119.583 76.7786C116.631 78.914 112.519 79.859 108.882 79.1996ZM131.859 78.0722C118.914 75.5707 104.892 56.0546 108.177 44.264C112.004 38.6572 122.543 24.0689 136.869 26.9124C139.004 27.4008 140.493 29.0304 140.493 30.8762V68.8777C133.669 65.6532 128.66 61.4334 126.226 56.7827C124.885 54.3259 120.728 56.0364 121.98 58.5341C125.102 64.5004 131.664 69.769 140.493 73.5053C141.155 78.3007 135.611 79.0404 131.859 78.0722Z" fill="black"/>
<path d="M43.4732 26.1815C62.0517 14.5251 88.9055 15.8064 106.002 29.1223C107.532 30.359 110.117 29.0739 109.83 27.2902C109.833 27.2012 107.679 15.7513 107.679 15.7513C107.468 14.6189 106.267 13.8578 104.985 14.0435C103.709 14.2322 102.848 15.3038 103.06 16.4352L104.247 22.7414C85.7131 11.1865 59.3752 11.1456 40.8229 22.754C38.3137 24.2988 40.9324 27.7099 43.4732 26.1815ZM103.857 106.816C85.2802 118.469 58.4238 117.19 41.3283 103.873C39.7345 102.697 37.2311 103.893 37.5005 105.706C37.497 105.796 39.651 117.246 39.651 117.246C39.8577 118.382 41.1001 119.145 42.3459 118.952C43.6218 118.764 44.4828 117.692 44.2701 116.56L43.0839 110.255C61.6172 121.809 87.9564 121.85 106.508 110.242C109.018 108.698 106.393 105.282 103.857 106.816Z" fill="black"/>
</svg>
