<svg width="128" height="114" viewBox="0 0 128 114" fill="none" xmlns="http://www.w3.org/2000/svg">
<path d="M111.451 47.5011C111.455 37.204 107.304 27.252 99.7626 19.4757C92.221 11.6994 81.7957 6.62177 70.4044 5.17683C59.0132 3.7319 47.422 6.01683 37.7631 11.6113C28.1042 17.2058 21.0271 25.7336 17.8337 35.6261H7.95956C7.50718 35.6259 7.06225 35.7292 6.66704 35.9263C6.27183 36.1233 5.93946 36.4074 5.7015 36.7518C5.46353 37.0961 5.32787 37.4892 5.30741 37.8937C5.28694 38.2981 5.38234 38.7006 5.58456 39.0627L10.3001 47.5011L5.58456 55.9395C5.38234 56.3017 5.28694 56.7041 5.30741 57.1086C5.32787 57.513 5.46353 57.9061 5.7015 58.2504C5.93946 58.5948 6.27183 58.8789 6.66704 59.076C7.06225 59.273 7.50718 59.3763 7.95956 59.3761H17.8311C21.2281 69.9724 29.0857 78.9759 39.7501 84.4917L32.2509 104.62C31.9867 105.348 31.8567 106.11 31.8661 106.876C31.8661 107.506 32.1457 108.11 32.6433 108.555C33.141 109.001 33.816 109.251 34.5197 109.251H45.3996C45.9568 109.251 46.4999 109.094 46.9519 108.803C47.4039 108.511 47.7419 108.1 47.9179 107.627L51.2987 98.5493C55.3686 99.3407 59.5209 99.7435 63.6858 99.7511C67.8512 99.7448 72.0039 99.3395 76.073 98.5422L79.4563 107.627C79.6324 108.1 79.9704 108.511 80.4224 108.803C80.8744 109.094 81.4175 109.251 81.9746 109.251H92.8545C93.5583 109.251 94.2333 109.001 94.7309 108.555C95.2286 108.11 95.5081 107.506 95.5081 106.876C95.5177 106.111 95.3878 105.35 95.1234 104.622L87.6083 84.4347C94.8475 80.6857 100.86 75.3011 105.044 68.8195C109.228 62.338 111.438 54.9867 111.451 47.5011ZM22.2414 40.3761L24.895 45.1261H14.9068L12.2531 40.3761H22.2414ZM14.9068 49.8761H24.895L22.2414 54.6261H12.2531L14.9068 49.8761ZM43.4864 104.501H37.8899L44.5239 86.6743C46.1515 87.3013 47.817 87.846 49.5128 88.306L43.4864 104.501ZM52.9837 94.0202L54.6794 89.465C60.6266 90.5131 66.7451 90.5131 72.6922 89.465L74.3879 94.0155C67.3255 95.2995 60.0468 95.3011 52.9837 94.0202ZM89.4818 104.501H83.8852L77.8615 88.3297C79.5516 87.8501 81.2101 87.2855 82.8291 86.6387L89.4818 104.501ZM63.6858 85.5011C54.7417 85.5159 46.022 82.9963 38.7762 78.3032C31.5304 73.6101 26.1306 66.9846 23.3506 59.3761H23.8813C24.3745 59.3763 24.8579 59.2535 25.2774 59.0215C25.6969 58.7896 26.0359 58.4575 26.2563 58.0627L30.8285 49.8761H34.6312C35.3141 56.5712 38.8545 62.7731 44.5161 67.1915C50.1777 71.61 57.5245 73.905 65.0285 73.599C72.5324 73.2931 79.6157 70.4099 84.805 65.5491C89.9944 60.6883 92.8902 54.2241 92.8902 47.5011C92.8902 40.7781 89.9944 34.3139 84.805 29.4531C79.6157 24.5923 72.5324 21.7091 65.0285 21.4032C57.5245 21.0973 50.1777 23.3922 44.5161 27.8107C38.8545 32.2292 35.3141 38.431 34.6312 45.1261H30.8285L26.2696 36.9395C26.0482 36.5429 25.7071 36.2096 25.285 35.9775C24.863 35.7454 24.3767 35.6237 23.8813 35.6261H23.3506C25.7955 28.9748 30.2461 23.0574 36.2113 18.527C42.1765 13.9966 49.4244 11.0294 57.1548 9.95288C64.8853 8.8764 72.7978 9.73248 80.0189 12.4266C87.2401 15.1208 93.4891 19.5483 98.0763 25.2204C102.663 30.8925 105.41 37.5886 106.014 44.5698C106.617 51.5509 105.054 58.5456 101.496 64.7817C97.9385 71.0178 92.5248 76.2529 85.8526 79.9091C79.1805 83.5653 71.5093 85.5005 63.6858 85.5011ZM53.4481 49.8761C54.094 52.1149 55.63 54.0661 57.7682 55.3638C59.9065 56.6615 62.5001 57.2167 65.063 56.9254C67.626 56.634 69.9822 55.5161 71.69 53.7812C73.3979 52.0462 74.3401 49.8133 74.3401 47.5011C74.3401 45.1889 73.3979 42.956 71.69 41.2211C69.9822 39.4861 67.626 38.3682 65.063 38.0768C62.5001 37.7855 59.9065 38.3407 57.7682 39.6384C55.63 40.9362 54.094 42.8873 53.4481 45.1261H39.9597C40.6379 39.6968 43.6131 34.706 48.2743 31.1787C52.9355 27.6514 58.9288 25.8552 65.0234 26.1592C71.1179 26.4632 76.8512 28.8442 81.0456 32.8132C85.24 36.7822 87.5772 42.038 87.5772 47.5011C87.5772 52.9642 85.24 58.22 81.0456 62.189C76.8512 66.158 71.1179 68.539 65.0234 68.843C58.9288 69.147 52.9355 67.3508 48.2743 63.8235C43.6131 60.2962 40.6379 55.3054 39.9597 49.8761H53.4481ZM58.3785 47.5011C58.3785 46.5616 58.6898 45.6433 59.273 44.8621C59.8561 44.081 60.685 43.4722 61.6548 43.1127C62.6246 42.7532 63.6917 42.6591 64.7212 42.8424C65.7507 43.0257 66.6964 43.4781 67.4386 44.1424C68.1808 44.8067 68.6863 45.653 68.8911 46.5744C69.0959 47.4958 68.9908 48.4509 68.5891 49.3189C68.1874 50.1868 67.5071 50.9286 66.6344 51.4506C65.7616 51.9725 64.7355 52.2511 63.6858 52.2511C62.2782 52.2511 60.9283 51.7507 59.933 50.8599C58.9377 49.9691 58.3785 48.7609 58.3785 47.5011Z" fill="black"/>
</svg>
