<svg width="132" height="113" viewBox="0 0 132 113" fill="none" xmlns="http://www.w3.org/2000/svg">
<g clip-path="url(#clip0_821_593)">
<path d="M24.3375 47.6707C24.3375 40.2551 28.6688 36.5473 37.3313 36.5473C28.6688 36.5473 24.3375 32.8395 24.3375 25.4238C24.3375 32.8395 20.0062 36.5473 11.3438 36.5473C20.0062 36.5473 24.3375 40.2551 24.3375 47.6707ZM27.6375 74.3316C27.6375 81.7473 23.3062 85.4551 14.6437 85.4551C23.3062 85.4551 27.6375 89.1629 27.6375 96.5785C27.6375 89.1629 31.9688 85.4551 40.425 85.4551C31.9688 85.4551 27.6375 81.7473 27.6375 74.3316Z" fill="#323134"/>
<path d="M72.1887 61.2676C51.1512 61.2676 40.6324 52.2629 40.6324 34.2535C40.6324 52.2629 30.1137 61.2676 9.07617 61.2676C29.0824 61.2676 39.3949 69.3895 40.6324 85.4566C40.6324 86.3394 40.6324 87.2223 40.6324 88.2816C40.6324 70.2723 51.1512 61.2676 72.1887 61.2676ZM50.3262 24.366C50.3262 16.9504 54.6574 13.2426 63.3199 13.2426C54.6574 13.2426 50.3262 9.53476 50.3262 2.11914C50.3262 9.53476 45.9949 13.2426 37.3324 13.2426C45.9949 13.2426 50.3262 16.9504 50.3262 24.366Z" fill="#323134"/>
<path d="M62.9059 81.5731C62.9059 91.9902 56.7184 97.2871 44.5496 97.2871C56.7184 97.2871 62.9059 102.584 62.9059 113.001C62.9059 102.584 69.0934 97.2871 81.2621 97.2871C68.8871 97.2871 62.9059 91.9902 62.9059 81.5731ZM75.2809 61.2684C75.2809 41.4934 86.8309 31.6059 109.931 31.6059C86.8309 31.6059 75.2809 21.7184 75.2809 1.94336C75.2809 21.7184 63.7309 31.6059 40.6309 31.6059C63.7309 31.6059 75.2809 41.4934 75.2809 61.2684Z" fill="#323134"/>
<path d="M97.3504 50.498C97.3504 65.1527 88.8941 72.3918 71.7754 72.3918C88.8941 72.3918 97.3504 79.6309 97.3504 94.2855C97.3504 79.8074 105.807 72.3918 122.925 72.3918C105.807 72.3918 97.3504 65.1527 97.3504 50.498Z" fill="#323134"/>
<path d="M109.726 22.2469C109.726 14.8313 114.057 11.1234 122.72 11.1234C114.057 11.1234 109.726 7.41562 109.726 0C109.726 7.41562 105.395 11.1234 96.7324 11.1234C105.395 11.1234 109.726 14.8313 109.726 22.2469Z" fill="#323134"/>
</g>
<defs>
<clipPath id="clip0_821_593">
<rect width="132" height="113" fill="white"/>
</clipPath>
</defs>
</svg>
