<svg width="121" height="110" viewBox="0 0 121 110" fill="none" xmlns="http://www.w3.org/2000/svg">
<path d="M84.231 24.9189C86.1998 26.6951 86.1998 29.5748 84.231 31.3509C82.2622 33.127 79.0698 33.127 77.1011 31.3509L65.541 20.9226V64.5177C69.7543 61.6629 74.9911 59.9715 80.666 59.9715H98.7444L87.1844 49.5432C85.2156 47.7672 85.2156 44.8874 87.1844 43.1112C89.1532 41.3351 92.3455 41.3351 94.3143 43.1112L114.481 61.3036C115.426 62.1564 115.958 63.3134 115.958 64.5195C115.958 65.7257 115.426 66.8827 114.481 67.7355L94.3143 85.9278C92.3455 87.7038 89.1532 87.7038 87.1844 85.9278C85.2156 84.1518 85.2156 81.2719 87.1844 79.4959L98.7444 69.0676H80.666C72.3145 69.0676 65.544 75.1734 65.541 82.7064V100.904C65.541 103.416 63.2839 105.452 60.4994 105.452C57.7148 105.452 55.4577 103.416 55.4577 100.904V82.7118C55.4577 75.1761 48.686 69.0676 40.3327 69.0676H22.2543L33.8144 79.4959C35.7832 81.2719 35.7832 84.1518 33.8144 85.9278C31.8454 87.7038 28.6533 87.7038 26.6843 85.9278L6.51767 67.7355C5.57221 66.8827 5.04102 65.7257 5.04102 64.5195C5.04102 63.3134 5.57221 62.1564 6.51767 61.3036L26.6843 43.1112C28.6533 41.3351 31.8454 41.3351 33.8144 43.1112C35.7832 44.8874 35.7832 47.7672 33.8144 49.5432L22.2544 59.9715H40.3327C46.0076 59.9715 51.2444 61.6629 55.4577 64.5177V20.9226L43.8977 31.3509C41.9288 33.127 38.7366 33.127 36.7677 31.3509C34.7988 29.5748 34.7988 26.6951 36.7677 24.9189L56.9344 6.72662C58.9032 4.9505 62.0955 4.9505 64.0643 6.72662L84.231 24.9189Z" fill="#25292E"/>
</svg>
